<?xml version="1.0" standalone="no"?>
<!DOCTYPE svg PUBLIC "-//W3C//DTD SVG 20010904//EN"
 "http://www.w3.org/TR/2001/REC-SVG-20010904/DTD/svg10.dtd">
<svg version="1.0" xmlns="http://www.w3.org/2000/svg"
 width="1080.000000pt" height="1080.000000pt" viewBox="0 0 1080.000000 1080.000000"
 preserveAspectRatio="xMidYMid meet">
<metadata>
Created by potrace 1.11, written by Peter Selinger 2001-2013
</metadata>
<g transform="translate(0.000000,1080.000000) scale(0.100000,-0.100000)"
fill="#000000" stroke="none">
<path d="M5160 10264 c-25 -2 -106 -8 -180 -14 -933 -75 -1864 -445 -2607
-1037 -748 -596 -1303 -1392 -1602 -2300 -103 -313 -181 -686 -217 -1038 -25
-235 -25 -715 0 -950 62 -600 216 -1139 476 -1670 709 -1444 2088 -2447 3675
-2674 250 -36 395 -45 695 -45 300 0 445 9 695 45 846 121 1660 472 2328 1003
1511 1201 2172 3167 1692 5031 -354 1376 -1293 2528 -2570 3155 -533 261
-1069 414 -1665 475 -145 15 -619 28 -720 19z m-734 -2573 c361 -90 654 -358
768 -699 42 -128 59 -283 54 -492 l-3 -125 -326 -3 -326 -2 -6 137 c-7 157
-24 238 -69 332 -62 131 -157 199 -312 223 -151 23 -293 -19 -380 -112 -98
-105 -136 -246 -136 -504 0 -254 26 -344 124 -433 74 -68 128 -94 499 -242
337 -135 438 -181 517 -234 247 -167 363 -390 400 -770 16 -165 14 -521 -5
-662 -19 -148 -55 -299 -95 -402 -118 -306 -376 -524 -704 -595 -132 -28 -381
-35 -510 -14 -357 59 -649 270 -804 581 -87 176 -112 298 -112 556 l0 179 328
-2 327 -3 6 -170 c6 -174 12 -202 59 -295 80 -156 259 -231 490 -202 190 23
292 106 344 281 23 78 39 341 31 516 -15 323 -55 405 -244 504 -42 22 -204 92
-361 156 -319 131 -411 175 -520 248 -95 63 -214 185 -263 268 -116 199 -176
496 -164 819 17 469 189 820 500 1021 126 82 266 134 423 159 102 15 377 5
470 -19z m2607 -4 c391 -103 668 -404 752 -817 9 -44 18 -162 22 -282 l6 -208
-330 0 -331 0 -4 163 c-6 190 -24 260 -91 359 -102 150 -280 202 -477 141 -76
-24 -150 -97 -180 -178 -51 -139 -50 -98 -50 -1485 0 -1412 -3 -1347 56 -1468
50 -103 120 -151 252 -173 137 -23 298 25 377 112 49 54 92 148 104 229 6 36
11 127 11 203 l0 137 331 0 332 0 -6 -212 c-6 -234 -18 -308 -71 -450 -125
-332 -423 -587 -771 -659 -208 -43 -494 -12 -706 76 -247 103 -453 343 -528
613 -41 149 -42 197 -39 1667 l3 1410 22 77 c92 323 275 547 556 678 163 77
289 100 507 95 127 -2 173 -8 253 -28z"/>
</g>
</svg>
